<?xml version="1.0" encoding="UTF-8" standalone="no"?>
<svg width="7px" height="13px" viewBox="0 0 7 13" version="1.1" xmlns="http://www.w3.org/2000/svg" xmlns:xlink="http://www.w3.org/1999/xlink">
    <!-- Generator: Sketch 3.8.3 (29802) - http://www.bohemiancoding.com/sketch -->
    <title>Shape</title>
    <desc>Created with Sketch.</desc>
    <defs></defs>
    <g id="Page-1" stroke="none" stroke-width="1" fill="none" fill-rule="evenodd">
        <path d="M6.75008095,6.85699803 C6.75008095,7.05999483 6.67592587,7.23586705 6.52761571,7.3846147 L1.27769858,12.6345318 C1.12938842,12.782842 0.953516198,12.8569971 0.75008191,12.8569971 C0.546647621,12.8569971 0.370775397,12.782842 0.222465238,12.6345318 C0.0741550794,12.4862217 -9.19403826e-16,12.3103494 -9.43689571e-16,12.1069152 L-9.43689571e-16,1.6070809 C-9.43689571e-16,1.40408411 0.0741550794,1.22821188 0.222465238,1.07946423 C0.370775397,0.930716578 0.546647621,0.856561499 0.75008191,0.856998992 C0.953516198,0.857436485 1.12938842,0.931591564 1.27769858,1.07946423 L6.52761571,6.32938136 C6.67592587,6.47769152 6.75008095,6.65356374 6.75008095,6.85699803 L6.75008095,6.85699803 Z" id="Shape" fill="#000000"></path>
    </g>
</svg>